<svg
              style="width:27px"
              xmlns="http://www.w3.org/2000/svg"
              viewBox="0 0 100 100"
            >
              <g>
                <path
                  d="M44.751 71.627L45 68.014a2.56 2.56 0 0 0-.706-1.674l-6.626-6.948a2.56 2.56 0 0 0-1.854-.794h-3.948a1.807 1.807 0 0 1-1.807-1.807v-2.843a6.71 6.71 0 0 0 3.848-6.065v-6.854a6.656 6.656 0 0 0-6.655-6.655h-4.506a6.656 6.656 0 0 0-6.655 6.655v6.854a6.71 6.71 0 0 0 3.848 6.065v2.843c0 .998-.809 1.807-1.807 1.807h-3.948c-.7 0-1.37.287-1.854.794L5.706 66.34A2.56 2.56 0 0 0 5 68.014l.249 3.613"
                  fill="none"
                  stroke="#000"
                  strokeWidth="3"
                  strokeLinecap="round"
                  strokeLinejoin="round"
                  strokeMiterlimit="10"
                />
                <path
                  d="M55.249 71.627L55 68.014a2.56 2.56 0 0 1 .706-1.674l6.626-6.948a2.56 2.56 0 0 1 1.854-.794h3.948c.998 0 1.807-.809 1.807-1.807v-2.843a6.71 6.71 0 0 1-3.848-6.065v-6.854a6.656 6.656 0 0 1 6.655-6.655h4.506a6.656 6.656 0 0 1 6.655 6.655v6.854a6.71 6.71 0 0 1-3.848 6.065v2.843c0 .998.809 1.807 1.807 1.807h3.948c.7 0 1.37.287 1.854.794l6.625 6.948c.432.453.683 1.049.706 1.674l-.249 3.613"
                  fill="none"
                  stroke="#000"
                  strokeWidth="3"
                  strokeLinecap="round"
                  strokeLinejoin="round"
                  strokeMiterlimit="10"
                />
              </g>
              <g>
                <g>
                  <g>
                    <path
                      d="M76.37 74.001C70.468 82.178 60.855 87.5 50 87.5a32.384 32.384 0 0 1-22.198-8.762"
                      fill="none"
                      stroke="#f47e5f"
                      strokeWidth="3"
                      strokeLinecap="round"
                      strokeLinejoin="round"
                    />
                    <g>
                      <path
                        fill="#f47e5f"
                        d="M23.117 84.297l10.809-9.783-10.295-.512z"
                      />
                    </g>
                  </g>
                </g>
                <g>
                  <g>
                    <path
                      d="M23.633 25.995C29.536 17.82 39.147 12.5 50 12.5a32.384 32.384 0 0 1 22.198 8.762"
                      fill="none"
                      stroke="#f47e5f"
                      strokeWidth="3"
                      strokeLinecap="round"
                      strokeLinejoin="round"
                    />
                    <g>
                      <path
                        fill="#f47e5f"
                        d="M76.883 15.703l-10.809 9.783 10.295.512z"
                      />
                    </g>
                  </g>
                </g>
              </g>
            </svg>
